<svg width="16" height="16" viewBox="0 0 16 16" fill="none" xmlns="http://www.w3.org/2000/svg">
<path d="M9.09288 4.82941C8.7506 4.54757 8.38471 4.30128 7.99519 4.09054C7.27229 3.69938 6.47895 3.43712 5.65968 3.36494C5.59844 3.35951 5.53714 3.35603 5.47579 3.35452C5.45337 3.35393 5.43028 3.35032 5.40977 3.34973C5.14752 3.34234 4.88707 3.35892 4.62843 3.39948C4.47663 3.42334 4.32759 3.47048 4.18437 3.5246C4.09901 3.55695 4.22422 3.64207 4.25023 3.66728C4.37227 3.78531 4.47561 3.9104 4.56025 4.04256C4.6949 4.25285 4.82075 4.48337 4.93778 4.73412C5.14744 5.18334 5.29565 5.65878 5.35692 6.14741C5.36876 6.24236 5.332 6.32102 5.25855 6.38152C5.24438 6.39317 5.22955 6.39633 5.21404 6.39101C5.11234 6.35589 5.04515 6.34202 4.90569 6.31337C4.47013 6.22388 4.16328 5.93683 3.87061 5.62012C3.62264 5.35185 3.4139 5.05878 3.2444 4.74092C3.08618 4.44413 2.95939 4.09079 2.91671 3.76215C2.9091 3.70355 2.90515 3.62459 2.90488 3.52527C2.90479 3.50611 2.89471 3.48208 2.87186 3.49552C2.86486 3.49967 2.85872 3.50482 2.85344 3.51098C2.65266 3.7466 2.4731 3.9904 2.31477 4.24238C1.70957 5.20536 1.33487 6.30757 1.26151 7.44306C1.26051 7.45903 1.25934 7.47216 1.25801 7.48247C1.25217 7.52886 1.25726 7.57633 1.25359 7.62314C1.24409 7.74565 1.24659 7.86859 1.24726 7.99135C1.24742 8.02782 1.25226 8.06656 1.25317 8.09992C1.25573 8.19034 1.26334 8.30627 1.27601 8.44772C1.3798 9.60884 1.81711 10.7616 2.65471 11.588C3.25591 12.1811 4.04891 12.5594 4.88727 12.6354C4.92895 12.6392 4.98247 12.6405 5.02998 12.6449C5.08867 12.6504 5.17311 12.6574 5.22904 12.6405C5.27798 12.6257 5.30824 12.6035 5.36059 12.6252C5.36226 12.6259 5.36414 12.626 5.36592 12.6255C5.38618 12.6199 5.40477 12.6126 5.42561 12.6104C5.46423 12.6063 5.50283 12.6023 5.5414 12.5984C5.62417 12.5898 5.72596 12.59 5.80698 12.5747C5.84905 12.5668 5.93814 12.5457 6.07424 12.5114C6.56448 12.3879 7.02688 12.129 7.34932 11.7281C7.61407 11.3989 7.7812 10.9752 7.78062 10.5459C7.78054 10.4786 7.78254 10.4087 7.7767 10.3443C7.74164 9.95479 7.60757 9.6052 7.37449 9.29558C7.03888 8.84971 6.50971 8.55956 5.9592 8.51855C5.41052 8.47763 4.73272 8.70955 4.3816 9.15197C4.21066 9.36742 4.12513 9.61578 4.12502 9.89706C4.12502 9.90877 4.12669 9.92652 4.13002 9.95033C4.13336 9.97395 4.13277 10.0009 4.13536 10.0217C4.17765 10.3654 4.33464 10.6466 4.60634 10.8655C4.62196 10.878 4.63524 10.8787 4.64619 10.8676C4.64748 10.8663 4.64831 10.8646 4.64852 10.8628C4.65252 10.8336 4.65161 10.8052 4.64577 10.7776C4.63344 10.7195 4.68162 10.6808 4.71696 10.7448C4.77456 10.8491 4.8305 10.9464 4.91211 11.0341C5.05607 11.1889 5.2463 11.2598 5.45437 11.2426C5.76664 11.2167 6.05806 11.0177 6.14026 10.7005C6.25771 10.2472 5.88734 9.78286 5.41727 9.82101C5.36517 9.8253 5.24205 9.91084 5.21362 9.93075C5.19578 9.94327 5.19195 9.96605 5.1947 9.98865C5.20262 10.0533 5.20012 10.1195 5.2052 10.1824C5.20843 10.2226 5.21004 10.2663 5.21004 10.3135C5.21004 10.3583 5.22982 10.3868 5.26939 10.3989C5.34367 10.4215 5.41686 10.4513 5.49021 10.4768C5.51856 10.4865 5.54048 10.4852 5.55357 10.4563C5.61142 10.3288 5.45812 10.3033 5.37734 10.3247C5.36317 10.3284 5.35072 10.3253 5.34 10.3153C5.25747 10.2379 5.26239 10.1263 5.32366 10.0379C5.3585 9.98756 5.38943 9.94731 5.45345 9.95277C5.50313 9.95706 5.55115 9.95974 5.59583 9.98512C5.70948 10.0497 5.81079 10.1256 5.89976 10.2128C5.91485 10.2276 5.91969 10.2497 5.91502 10.2716C5.87901 10.4401 5.81635 10.5979 5.72704 10.7452C5.70878 10.7753 5.69595 10.8026 5.66135 10.7952C5.46029 10.752 5.26547 10.6854 5.07691 10.5953C5.00155 10.5593 4.97655 10.5504 4.96079 10.4576C4.94637 10.3727 4.96079 10.2723 4.94595 10.1735C4.93978 10.1327 4.94562 10.0941 4.93778 10.0532C4.93245 10.0256 4.9347 9.99487 4.93195 9.97067C4.92806 9.93633 4.92453 9.90193 4.92136 9.86748C4.91461 9.79379 4.9362 9.76068 5.0008 9.72581C5.1276 9.65724 5.27864 9.6064 5.42352 9.60018C5.44253 9.59943 5.46154 9.59422 5.47938 9.59422C5.58202 9.59444 5.67588 9.60657 5.76097 9.6306C6.16226 9.74379 6.44369 10.1356 6.43727 10.5547C6.42952 11.0546 6.05556 11.4529 5.56124 11.491C5.50313 11.4956 5.44878 11.4874 5.38443 11.4728C5.30079 11.4537 5.2166 11.4376 5.13185 11.4244C4.45588 11.319 3.91862 10.8396 3.79491 10.1515C3.78241 10.0818 3.77849 10.0127 3.77224 9.94059C3.76832 9.89571 3.77524 9.84278 3.77733 9.80891C3.81292 9.2207 4.19588 8.7177 4.69962 8.44805C4.78674 8.4015 4.86985 8.34159 4.97355 8.34646C4.98805 8.34713 5.00122 8.34321 5.01306 8.3347C5.07619 8.28943 5.1483 8.2635 5.22938 8.25689C5.27531 8.25311 5.3059 8.22126 5.35784 8.21588C5.38585 8.21302 5.40594 8.21053 5.41811 8.2084C5.70595 8.15798 6.00171 8.1584 6.29422 8.22227C6.72853 8.31705 7.10243 8.51461 7.41592 8.81493C7.95543 9.33188 8.19259 10.0507 8.09989 10.7945C8.04571 11.229 7.8826 11.6163 7.61057 11.9564C7.58806 11.9845 7.56536 12.0125 7.54246 12.0403C7.48928 12.1049 7.44701 12.1783 7.40167 12.2463C7.40128 12.2469 7.4008 12.2474 7.40025 12.248C7.21344 12.4132 6.99778 12.5538 6.76279 12.653C6.48462 12.7702 6.20419 12.8399 5.90827 12.8997C5.86934 12.9075 5.83574 12.9308 5.81032 12.9577C5.80903 12.9591 5.80728 12.96 5.8054 12.9602C5.56057 12.9946 5.33841 13.0045 5.06608 12.9983C5.00331 12.9968 4.93287 12.9911 4.86751 12.9851C2.57252 12.7723 1.14922 10.5626 1.0176 8.41411C1.01301 8.34008 1.00651 8.271 1.00584 8.20672C1.00501 8.13084 1.00918 8.05438 1.00084 7.97892C0.997425 7.94757 1.00551 7.91598 1.00551 7.88909C1.00559 7.79212 0.999175 7.6896 1.0106 7.59356C1.01568 7.55104 1.0121 7.5107 1.01818 7.4676C1.02327 7.43222 1.02127 7.3976 1.02568 7.36197C1.0273 7.34926 1.02899 7.33293 1.03077 7.31298C1.15106 5.97095 1.66397 4.67664 2.53167 3.6519C2.64265 3.52082 2.77003 3.38236 2.9138 3.23654C2.97381 3.17571 3.02441 3.11361 3.06693 3.04874C3.0861 3.01958 3.10327 2.99983 3.1407 3C3.21514 3.00025 3.26824 3.00572 3.32785 3.05395C3.34302 3.06622 3.34735 3.08157 3.34085 3.1C3.33157 3.12655 3.32751 3.15621 3.32868 3.18898C3.32912 3.20069 3.32715 3.21128 3.32276 3.22075C3.29033 3.29091 3.24374 3.36343 3.23365 3.4409C3.22148 3.53502 3.22873 3.61879 3.2369 3.69736C3.25407 3.862 3.28975 4.02247 3.34393 4.17877C3.51816 4.68185 3.82117 5.14267 4.17712 5.53391C4.21274 5.57307 4.24828 5.61234 4.28374 5.65172C4.32859 5.70163 4.38185 5.74642 4.43095 5.79465C4.58345 5.94462 4.75511 6.06699 4.94595 6.16178C4.99097 6.18413 5.01122 6.168 5.00531 6.11918C5.00153 6.08797 4.99772 6.05677 4.99389 6.02557C4.97921 5.90574 4.94512 5.78709 4.90936 5.66533C4.73814 5.08334 4.4753 4.53816 4.13144 4.04373C4.06008 3.94116 4.0067 3.87186 3.9713 3.83584C3.92151 3.7852 3.8718 3.73447 3.82217 3.68367C3.78505 3.64563 3.75982 3.60669 3.74648 3.56686C3.70138 3.43225 3.83809 3.42578 3.92262 3.40553C3.94952 3.39909 3.97853 3.3904 4.00965 3.37948C4.30502 3.27534 4.61101 3.2119 4.92761 3.18915C4.95871 3.18688 4.9893 3.18755 5.01639 3.18495C5.11103 3.17593 5.18914 3.17397 5.25072 3.17907C5.32549 3.1852 5.4016 3.18613 5.46104 3.19176C5.49577 3.19506 5.53048 3.1982 5.56515 3.20117C6.88075 3.31335 8.12398 3.87063 9.1168 4.74345C9.14904 4.77179 9.18141 4.8 9.21392 4.82806C9.27569 4.88134 9.27919 4.76462 9.35738 4.80151C9.41407 4.82829 9.46092 4.86719 9.49793 4.91823C9.50749 4.93139 9.50746 4.94453 9.49784 4.95764C9.47628 4.9871 9.45339 5.0164 9.42916 5.04553C9.38606 5.09729 9.33012 5.07872 9.27302 5.08738C8.94883 5.13662 8.65991 5.26846 8.37681 5.42938C7.92483 5.68634 7.51028 5.97851 7.13908 6.34555C7.11741 6.3669 7.08831 6.38689 7.07064 6.34732C7.06994 6.34573 7.06973 6.34399 7.07006 6.34236C7.0829 6.27194 7.18384 6.18632 7.23328 6.13665C7.26068 6.10909 7.28849 6.0829 7.31672 6.05809C7.51745 5.88168 7.70918 5.72673 7.89191 5.59324C8.26586 5.31997 8.66635 5.09432 9.09338 4.91629C9.1514 4.89209 9.12656 4.85714 9.09288 4.82941Z" fill="#111111"/>
<path d="M14.422 4.46539C14.4968 4.39783 14.5869 4.30986 14.6717 4.23499C14.6824 4.22557 14.6907 4.21434 14.6965 4.20129C14.702 4.18874 14.699 4.17888 14.6875 4.17171C14.6484 4.14759 14.6061 4.1144 14.5608 4.10499C14.4138 4.07449 14.2598 4.04214 14.1094 4.04088C13.7198 4.03743 13.334 4.09062 12.9536 4.17238C11.2339 4.54183 9.60681 5.15813 8.07243 6.02128C8.0412 6.03887 7.98929 6.07145 7.91671 6.11901C7.7187 6.24886 7.52681 6.38732 7.34102 6.53437C7.31579 6.55437 7.28865 6.55479 7.25958 6.53563C7.2583 6.53479 7.25729 6.53361 7.25664 6.53222C7.25599 6.53082 7.25574 6.52927 7.25591 6.52773C7.26158 6.47437 7.31985 6.41471 7.3582 6.38043C7.59061 6.1722 7.85186 5.9891 8.11761 5.82709C8.63761 5.51008 9.17398 5.23373 9.72671 4.99806C10.1488 4.81812 10.5842 4.64905 11.0328 4.49086C11.5309 4.31523 12.0652 4.15589 12.636 4.01281C13.1072 3.89467 13.5814 3.81148 14.0474 3.79039C14.0874 3.78862 14.1275 3.78148 14.1667 3.7824C14.245 3.7842 14.323 3.77969 14.4006 3.76887C14.4219 3.76596 14.4416 3.76585 14.4598 3.76854C14.5762 3.78585 14.6916 3.81879 14.806 3.86736C14.9024 3.90828 14.9497 3.98979 14.9989 4.07936C14.9996 4.08053 14.9999 4.08183 15 4.08316C15 4.08449 14.9997 4.08581 14.9992 4.08701C14.9578 4.17636 14.8891 4.2235 14.793 4.22843C14.7768 4.22927 14.7635 4.23504 14.7528 4.24574C14.5947 4.40506 14.4371 4.56382 14.2802 4.72202C14.2563 4.74614 14.2326 4.7763 14.2072 4.80244C14.1837 4.8268 14.168 4.83168 14.1341 4.82025C14.0011 4.77555 13.9247 4.65564 13.8767 4.52842C13.8505 4.45895 13.8265 4.3887 13.8045 4.31767C13.7796 4.23683 13.8914 4.21347 13.9449 4.20465C14.0532 4.18689 14.1622 4.17897 14.2719 4.18087C14.2767 4.18098 14.2891 4.17958 14.3091 4.17667C14.3583 4.16953 14.3725 4.20129 14.3975 4.23709C14.4165 4.26437 14.4152 4.2893 14.3936 4.31187C14.3246 4.3838 14.2573 4.45682 14.1755 4.51237C14.0915 4.56925 14.0428 4.44472 14.0321 4.38103C14.0318 4.37937 14.0311 4.37784 14.0299 4.37662C14.0288 4.37541 14.0273 4.37457 14.0256 4.37422C14.0057 4.37002 13.9978 4.37982 14.0018 4.40363C14.0175 4.49791 14.0464 4.62371 14.1206 4.69C14.1334 4.70143 14.1475 4.70337 14.1629 4.6958C14.1709 4.69183 14.1804 4.68488 14.1912 4.67496C14.2679 4.60488 14.3448 4.53503 14.422 4.46539Z" fill="#111111"/>
<path d="M5.97171 5.70285C5.83658 5.58596 5.73038 5.37337 5.72797 5.19413C5.72755 5.15977 5.72438 5.12641 5.72922 5.09338C5.77223 4.79726 6.01473 4.52467 6.31824 4.4956C6.47704 4.48047 6.65043 4.53761 6.78631 4.61937C6.90176 4.68886 6.99504 4.79146 6.93744 4.937C6.90851 5.01011 6.83374 5.02456 6.76355 4.99902C6.6738 4.96636 6.59722 4.91401 6.53381 4.84197C6.52058 4.82695 6.50377 4.81855 6.48338 4.81676C6.21938 4.79314 6.05165 4.98826 6.04232 5.24018C6.03715 5.37849 6.10667 5.50748 6.2087 5.59747C6.25011 5.634 6.28529 5.65879 6.31424 5.67184C6.40735 5.7136 6.52289 5.6752 6.6065 5.62369C6.63484 5.60613 6.64226 5.58252 6.60133 5.57386C6.54648 5.56227 6.36859 5.5221 6.37551 5.43597C6.38093 5.36883 6.46912 5.38992 6.50997 5.39664C6.54431 5.40236 6.56946 5.40491 6.58541 5.40429C6.62776 5.40261 6.76864 5.38463 6.77522 5.32656C6.79406 5.15842 6.91527 5.10952 7.05431 5.20195C7.12467 5.24875 7.07807 5.33085 7.04356 5.38118C7.01772 5.41883 6.99854 5.45168 6.9812 5.49832C6.9104 5.68873 6.77411 5.80836 6.57232 5.85721C6.55837 5.86063 6.52345 5.86547 6.46754 5.87175C6.42486 5.87654 6.38726 5.87065 6.34533 5.86603C6.20373 5.85018 6.07919 5.79578 5.97171 5.70285Z" fill="#111111"/>
</svg>
