<svg width="16" height="16" viewBox="0 0 16 16" fill="none" xmlns="http://www.w3.org/2000/svg">
<rect width="16" height="16" fill="#111111"/>
<path d="M2.21777 8.91334V8.34532C2.27312 7.50112 2.43891 6.69786 2.79021 5.92744C3.77965 3.75946 5.7833 2.23985 8.14432 1.89722C8.17869 1.89234 8.20658 1.88998 8.22797 1.89015C8.2331 1.89022 8.23804 1.89205 8.24196 1.89532C8.24587 1.89859 8.24852 1.9031 8.24946 1.90809L8.87774 5.3574C8.87795 5.35914 8.87883 5.36073 8.88021 5.36182C8.88158 5.36291 8.88333 5.36341 8.88507 5.36321C8.88682 5.36301 8.88841 5.36212 8.8895 5.36075C8.89059 5.35938 8.89109 5.35762 8.89089 5.35588C8.88507 5.25481 8.90024 5.14919 8.90782 5.06176C8.97353 4.29547 9.03865 3.5291 9.10318 2.76264C9.10419 2.75136 9.11017 2.74672 9.12113 2.74875C9.14353 2.75262 9.18001 2.75759 9.23056 2.76365C11.5405 3.04489 13.2975 4.81768 13.7183 7.07131C13.7422 7.199 13.7636 7.32517 13.7825 7.44983C13.7828 7.45212 13.7827 7.45445 13.782 7.45666C13.7814 7.45888 13.7803 7.46093 13.7788 7.46268C13.7773 7.46443 13.7755 7.46583 13.7734 7.4668C13.7714 7.46776 13.7691 7.46827 13.7668 7.46827L11.2956 7.46928C11.2929 7.46937 11.2904 7.4684 11.2886 7.46658C11.2868 7.46476 11.2858 7.46222 11.2859 7.45949C11.2859 7.45675 11.287 7.45402 11.2889 7.45185C11.2908 7.44968 11.2934 7.44824 11.2961 7.44781L12.7258 7.14838C12.731 7.14733 12.7359 7.14526 12.7403 7.1423C12.7447 7.13934 12.7484 7.13553 12.7513 7.13112C12.7542 7.1267 12.7562 7.12175 12.7571 7.11656C12.7581 7.11137 12.758 7.10604 12.7569 7.10088C12.4322 5.58127 11.3115 4.42299 9.84899 3.952C9.8471 3.95139 9.84511 3.95116 9.84313 3.95134C9.84115 3.95152 9.83922 3.9521 9.83746 3.95304C9.83569 3.95398 9.83413 3.95527 9.83285 3.95682C9.83158 3.95838 9.83062 3.96018 9.83004 3.96211L8.97479 6.78478C8.97387 6.78778 8.97206 6.79042 8.9696 6.79236C8.96713 6.7943 8.96413 6.79545 8.961 6.79564C8.95787 6.79583 8.95475 6.79506 8.95207 6.79344C8.94939 6.79181 8.94726 6.78941 8.94598 6.78655C8.89291 6.66762 8.84388 6.55231 8.79889 6.44063C8.39469 5.4348 7.98223 4.43234 7.56152 3.43325C7.50718 3.30388 7.46018 3.1639 7.41342 3.02745C7.41022 3.01852 7.40415 3.01549 7.39522 3.01835C6.43661 3.32106 5.60791 3.82945 4.89925 4.54175C4.06322 5.38216 3.53956 6.35876 3.28708 7.51653C2.92871 9.16046 3.31033 10.9527 4.47037 12.1969C5.05696 12.8263 5.85053 13.2897 6.72094 13.358C7.76143 13.4396 8.90782 12.9673 9.25937 11.8924C9.54723 11.0121 9.21666 10.0671 8.462 9.54529C7.90094 9.15743 7.1574 9.11801 6.57814 9.49147C6.426 9.58951 6.30334 9.70346 6.21017 9.83334C5.7876 10.4218 6.02037 11.2751 6.70476 11.5414C7.0371 11.6708 7.45916 11.5366 7.59968 11.1837C7.60101 11.1803 7.60133 11.1766 7.60062 11.173C7.5999 11.1694 7.59817 11.1662 7.59564 11.1636C7.59311 11.1609 7.58988 11.1591 7.58634 11.1583C7.5828 11.1575 7.5791 11.1577 7.57567 11.1589C7.30727 11.2559 6.98681 11.1854 6.84983 10.9292C6.68682 10.6237 6.99111 10.3043 7.29034 10.2629C7.81577 10.1901 8.10767 10.6778 8.03008 11.1485C7.97827 11.4608 7.76851 11.7246 7.48873 11.8699C7.07779 12.0837 6.5367 12.0097 6.15078 11.778C5.65593 11.4806 5.40572 11.002 5.41659 10.412C5.42198 10.1185 5.49384 9.8581 5.63217 9.63069C6.1255 8.82061 7.10029 8.55403 7.98939 8.75845C9.22929 9.04347 10.0312 10.2108 9.95236 11.456C9.85506 12.9961 8.47439 14.0414 7.01309 14.1059C5.04937 14.1923 3.45641 12.9522 2.73107 11.1885C2.42796 10.4515 2.25686 9.69311 2.21777 8.91334Z" fill="white"/>
<path d="M10.9866 6.89695C10.9059 6.89681 10.826 6.88061 10.7515 6.84927C10.677 6.81792 10.6093 6.77206 10.5523 6.71428C10.4953 6.65651 10.4502 6.58797 10.4194 6.51256C10.3887 6.43715 10.3729 6.35636 10.373 6.2748C10.3732 6.19324 10.3892 6.1125 10.4202 6.0372C10.4513 5.9619 10.4967 5.89351 10.5538 5.83594C10.611 5.77837 10.6789 5.73274 10.7535 5.70165C10.8281 5.67057 10.9081 5.65465 10.9888 5.65479C11.0695 5.65493 11.1494 5.67113 11.2239 5.70247C11.2984 5.73382 11.3661 5.77968 11.4231 5.83746C11.48 5.89523 11.5252 5.96377 11.556 6.03918C11.5867 6.11459 11.6025 6.19538 11.6023 6.27694C11.6022 6.3585 11.5862 6.43924 11.5551 6.51454C11.5241 6.58984 11.4787 6.65823 11.4215 6.7158C11.3644 6.77337 11.2965 6.819 11.2219 6.85009C11.1473 6.88117 11.0673 6.89709 10.9866 6.89695ZM11.4709 6.35925C11.4709 6.31107 11.4614 6.26336 11.443 6.21885C11.4245 6.17434 11.3975 6.13389 11.3634 6.09982C11.3294 6.06575 11.2889 6.03873 11.2444 6.02029C11.1999 6.00185 11.1521 5.99236 11.1039 5.99236C11.0558 5.99236 11.008 6.00185 10.9635 6.02029C10.919 6.03873 10.8785 6.06575 10.8445 6.09982C10.8104 6.13389 10.7834 6.17434 10.7649 6.21885C10.7465 6.26336 10.737 6.31107 10.737 6.35925C10.737 6.45656 10.7756 6.54988 10.8445 6.61868C10.9133 6.68749 11.0066 6.72614 11.1039 6.72614C11.1521 6.72614 11.1999 6.71665 11.2444 6.69821C11.2889 6.67978 11.3294 6.65275 11.3634 6.61868C11.3975 6.58461 11.4245 6.54417 11.443 6.49966C11.4614 6.45514 11.4709 6.40743 11.4709 6.35925Z" fill="white"/>
<path d="M11.2129 6.66061C10.9182 6.66415 10.9084 6.22474 11.1841 6.22904C11.1939 6.2292 11.2011 6.23367 11.2056 6.24243C11.2468 6.32152 11.2807 6.38696 11.3858 6.33769C11.3941 6.33398 11.3995 6.33642 11.4022 6.34501C11.4515 6.49763 11.3835 6.65859 11.2129 6.66061Z" fill="white"/>
</svg>
