<svg width="180" height="180" viewBox="0 0 180 180" fill="none" xmlns="http://www.w3.org/2000/svg">
<path d="M17.4248 101.464V94.3333C18.1195 83.7356 20.2003 73.6518 24.6094 63.9803C37.0278 36.7645 62.1755 17.688 91.8084 13.3868C92.2398 13.3254 92.5898 13.2958 92.8584 13.298C92.9228 13.2989 92.9848 13.3219 93.0339 13.3629C93.083 13.404 93.1163 13.4606 93.128 13.5232L101.014 56.8243C101.016 56.8462 101.027 56.8661 101.045 56.8798C101.062 56.8935 101.084 56.8998 101.106 56.8972C101.127 56.8947 101.147 56.8836 101.161 56.8664C101.175 56.8491 101.181 56.8271 101.179 56.8053C101.106 55.5364 101.296 54.2105 101.391 53.113C102.216 43.4934 103.033 33.8727 103.843 24.2509C103.856 24.1092 103.931 24.0511 104.068 24.0764C104.35 24.1251 104.807 24.1875 105.442 24.2636C134.434 27.794 156.486 50.0489 161.767 78.34C162.067 79.943 162.336 81.5268 162.573 83.0917C162.577 83.1204 162.575 83.1497 162.567 83.1775C162.559 83.2054 162.545 83.2311 162.526 83.2531C162.508 83.275 162.485 83.2926 162.459 83.3047C162.433 83.3168 162.405 83.3232 162.376 83.3233L131.36 83.3359C131.326 83.337 131.295 83.3248 131.272 83.302C131.249 83.2792 131.237 83.2473 131.238 83.213C131.238 83.1787 131.252 83.1444 131.276 83.1171C131.3 83.0899 131.332 83.0717 131.367 83.0663L149.311 79.3075C149.376 79.2943 149.437 79.2683 149.492 79.2311C149.547 79.1939 149.594 79.1462 149.63 79.0908C149.666 79.0353 149.691 78.9732 149.704 78.908C149.716 78.8429 149.715 78.776 149.701 78.7112C145.625 59.6347 131.56 45.0942 113.204 39.1816C113.18 39.1739 113.155 39.1711 113.13 39.1733C113.105 39.1755 113.081 39.1828 113.059 39.1946C113.037 39.2064 113.017 39.2226 113.001 39.2421C112.985 39.2617 112.973 39.2842 112.966 39.3084L102.232 74.743C102.22 74.7806 102.197 74.8138 102.166 74.8382C102.135 74.8626 102.098 74.8769 102.059 74.8793C102.019 74.8817 101.98 74.8721 101.946 74.8517C101.913 74.8313 101.886 74.8011 101.87 74.7652C101.204 73.2722 100.589 71.8247 100.024 70.4227C94.9508 57.796 89.7741 45.2116 84.4938 32.6694C83.8118 31.0454 83.2218 29.2881 82.635 27.5752C82.5948 27.4631 82.5187 27.425 82.4066 27.461C70.3752 31.2611 59.9741 37.6431 51.0798 46.585C40.5868 57.1351 34.0144 69.395 30.8456 83.9291C26.3477 104.566 31.1374 127.065 45.6969 142.684C53.0592 150.586 63.0193 156.403 73.9437 157.26C87.0028 158.284 101.391 152.356 105.803 138.862C109.416 127.811 105.267 115.947 95.7957 109.397C88.7538 104.528 79.4217 104.033 72.1515 108.722C70.2419 109.952 68.7025 111.383 67.533 113.013C62.2294 120.401 65.1509 131.113 73.7407 134.456C77.9119 136.08 83.2091 134.396 84.9728 129.964C84.9894 129.922 84.9935 129.876 84.9845 129.831C84.9755 129.786 84.9538 129.745 84.9221 129.712C84.8903 129.679 84.8498 129.656 84.8053 129.646C84.7609 129.636 84.7144 129.638 84.6714 129.654C81.3027 130.872 77.2806 129.987 75.5614 126.77C73.5155 122.935 77.3346 118.926 81.0902 118.406C87.6848 117.492 91.3485 123.614 90.3747 129.524C89.7244 133.444 87.0917 136.756 83.5802 138.58C78.4226 141.263 71.6313 140.334 66.7876 137.425C60.5768 133.692 57.4365 127.684 57.5729 120.277C57.6406 116.593 58.5425 113.324 60.2787 110.469C66.4704 100.3 78.7049 96.9534 89.864 99.5195C105.426 103.098 115.491 117.752 114.501 133.384C113.28 152.717 95.9511 165.84 77.6105 166.649C52.964 167.734 32.9708 152.165 23.8672 130.025C20.0629 120.773 17.9154 111.253 17.4248 101.464Z" fill="white"/>
<path d="M127.477 76.1547C126.464 76.1529 125.461 75.9495 124.526 75.556C123.591 75.1625 122.741 74.5868 122.026 73.8615C121.311 73.1363 120.744 72.2758 120.358 71.3291C119.972 70.3825 119.775 69.3683 119.776 68.3444C119.778 67.3205 119.979 66.307 120.369 65.3617C120.758 64.4164 121.328 63.5579 122.045 62.8352C122.763 62.1124 123.614 61.5396 124.551 61.1494C125.488 60.7592 126.491 60.5593 127.504 60.561C128.517 60.5628 129.52 60.7662 130.455 61.1597C131.391 61.5531 132.24 62.1289 132.955 62.8542C133.67 63.5794 134.237 64.4399 134.623 65.3866C135.009 66.3332 135.207 67.3474 135.205 68.3713C135.203 69.3952 135.002 70.4087 134.613 71.354C134.223 72.2993 133.654 73.1578 132.936 73.8805C132.218 74.6033 131.367 75.1761 130.43 75.5663C129.494 75.9565 128.49 76.1564 127.477 76.1547ZM133.556 69.4046C133.556 68.7998 133.436 68.2009 133.205 67.6421C132.974 67.0833 132.634 66.5755 132.207 66.1478C131.779 65.7202 131.271 65.3809 130.712 65.1494C130.154 64.918 129.555 64.7989 128.95 64.7989C128.345 64.7989 127.746 64.918 127.187 65.1494C126.628 65.3809 126.121 65.7202 125.693 66.1478C125.265 66.5755 124.926 67.0833 124.695 67.6421C124.463 68.2009 124.344 68.7998 124.344 69.4046C124.344 70.6261 124.829 71.7976 125.693 72.6614C126.557 73.5251 127.728 74.0104 128.95 74.0104C129.555 74.0104 130.154 73.8912 130.712 73.6598C131.271 73.4283 131.779 73.0891 132.207 72.6614C132.634 72.2337 132.974 71.726 133.205 71.1672C133.436 70.6084 133.556 70.0094 133.556 69.4046Z" fill="white"/>
<path d="M130.327 73.1858C126.628 73.2302 126.504 67.714 129.965 67.768C130.088 67.7701 130.178 67.8261 130.235 67.9361C130.752 68.9289 131.177 69.7505 132.496 69.1319C132.6 69.0854 132.669 69.1161 132.702 69.2239C133.321 71.1398 132.468 73.1604 130.327 73.1858Z" fill="white"/>
</svg>
