<svg width="800" height="1054" viewBox="0 0 800 1054" fill="none" xmlns="http://www.w3.org/2000/svg">
<path fill-rule="evenodd" clip-rule="evenodd" d="M0 0C266.64 0 533.359 0 800 0C800 12.999 800 501.301 800 514.3C798.021 514.049 796.81 512.79 794.5 513.3C792.427 513.758 790.102 516.636 786.5 515.3C785.137 514.794 785.555 513.758 783.5 513.3C778.611 519.721 765.713 518.743 757 516.8C751.679 515.613 749.204 519.495 745 518.3C742.856 517.691 742.23 514.966 740 515.8C737.152 516.536 737.046 518.154 733 518.3C732.62 517.831 728.857 514.431 728.5 514.3C725.916 513.352 721.938 515.288 720 513.8C719.235 513.213 718.018 510.621 717.5 509.8C714.162 511.796 704.635 514.509 698.5 512.8C696.221 512.165 694.973 508.784 691.5 509.8C691 510.3 690.5 510.8 690 511.3C686.334 511.3 682.666 511.3 679 511.3C676.646 511.989 672.109 513.712 670 514.3C667.5 513.967 665 513.633 662.5 513.3C658.461 514.64 658.715 518.181 651.5 518.3C649.303 515.291 647.427 516.874 643 515.8C642.762 515.742 642.018 514.716 641.5 514.8C640.23 515.006 639.467 516.904 637 516.3C634.544 515.699 632.979 512.866 631 512.3C628.542 511.597 625.047 513.47 622.5 511.8C621.217 510.958 619.95 508.452 618.5 507.8C616.834 507.633 615.166 507.467 613.5 507.3C612.834 506.633 612.166 505.967 611.5 505.3C609.392 504.726 609.076 506.448 608 506.8C605.5 506.8 603 506.8 600.5 506.8C599.287 507.172 598.176 508.738 596 508.3C593.523 507.802 592.648 505.49 591 504.8C588.5 504.967 586 505.133 583.5 505.3C582.847 505.139 580.955 503.904 580.5 503.8C578.004 503.23 574.029 505.254 572.5 505.8C570.167 505.8 567.833 505.8 565.5 505.8C562.116 506.801 557.419 506.886 554 507.8C551 507.967 548 508.133 545 508.3C542.924 509.11 539.666 511.228 537.5 511.8C532.913 513.011 523.442 507.277 520 507.8C511.449 509.1 504.805 513.492 497 514.8C492.428 515.566 488.295 512.091 483 513.8C480.205 514.702 479.311 516.217 475 516.3C474.918 516.19 460.672 507.351 460.5 507.3C457.924 506.533 450.85 508.433 447 507.8C445.256 507.513 445.834 505.769 443.5 506.3C443 506.8 442.5 507.3 442 507.8C438 507.8 434 507.8 430 507.8C429.5 508.467 429 509.133 428.5 509.8C425.857 511.422 421.627 510.554 419 509.8C416.334 509.8 413.666 509.8 411 509.8C408.152 508.898 397.328 505.088 395 508.8C393.825 510.327 394.081 512.218 393.5 513.3C392.91 513.701 392.659 513.687 391.5 513.8C389.3 511.678 383.601 515.588 381.5 514.8C380.029 514.248 379.953 512.909 377 512.8C377 513.133 377 513.467 377 513.8C377.376 514.336 377.301 514.273 377.5 515.3C376.476 515.656 375.163 515.797 373.5 515.8C372.927 515.072 372.499 514.7 372 513.8C368.337 516.691 355.6 521.178 348 518.8C346.379 518.293 346.316 516.146 343.5 516.8C343.167 517.133 342.833 517.467 342.5 517.8C338.334 517.633 334.166 517.467 330 517.3C328.495 517.909 324.433 520.775 321 519.8C320.5 519.3 320 518.8 319.5 518.3C317 518.133 314.5 517.967 312 517.8C311.5 517.3 311 516.8 310.5 516.3C307.814 515.254 305.318 516.284 303 515.3C301.358 514.603 300.379 512.821 298.5 512.3C294.334 512.133 290.166 511.967 286 511.8C285.049 511.517 284.137 510.065 283.5 509.8C280.667 509.8 277.833 509.8 275 509.8C273.456 511.763 268.424 515.029 266 515.8C261 515.633 256 515.467 251 515.3C250.667 515.8 250.333 516.3 250 516.8C244.146 519.45 235.539 513.506 232 511.8C229.459 510.575 228.34 513.346 226 512.8C222.661 512.022 218.59 509.132 214.5 508.8C210.859 513.878 205.933 509.047 201 508.3C196.103 507.558 192.704 513.07 187 510.8C184.368 509.752 180.596 506.39 175.5 507.8C172.346 508.673 169.228 511.916 166 512.8C163.085 513.598 160.123 511.786 158 511.3C152.353 510.007 149.567 513.947 145 512.8C142.958 512.287 141.72 510.482 140 509.8C137.414 508.775 135.393 509.077 133 507.8C132.333 507.133 131.667 506.467 131 505.8C127 505.8 123 505.8 119 505.8C118.212 505.534 117.289 504.065 116.5 503.8C114.212 503.031 100.708 503.082 99 503.8C97.717 504.339 95.279 506.319 93.5 506.8C90.894 507.505 89.987 505.96 87.5 505.8C86.515 507.386 85.223 508.484 84 509.8C78.458 509.853 73.294 509.182 69 508.8C67.945 510.518 67.311 511.206 64.5 511.3C63.487 510.24 63.029 509.975 61 509.8C60.014 511.224 59.494 511.307 57 511.3C55.007 509.333 53.357 510.79 50 509.8C48.147 509.254 42.788 504.804 40 505.8C39.346 506.033 37.982 507.661 37 507.8C34.471 508.158 33.179 504.233 30 505.8C26.112 507.716 23.286 511.453 18 511.8C11.278 505.82 5.213 512.842 0 513.8C0 500.968 0 12.832 0 0Z" fill="white"/>
<path fill-rule="evenodd" clip-rule="evenodd" d="M800 1054C533.36 1054 266.641 1054 0 1054C0 1041 0 552.7 0 539.701C1.979 539.952 3.19 541.211 5.5 540.701C7.573 540.243 9.898 537.365 13.5 538.701C14.863 539.207 14.445 540.243 16.5 540.701C21.389 534.28 34.287 535.258 43 537.201C48.321 538.388 50.796 534.506 55 535.701C57.144 536.31 57.77 539.035 60 538.201C62.848 537.465 62.954 535.847 67 535.701C67.38 536.17 71.143 539.57 71.5 539.701C74.084 540.649 78.062 538.713 80 540.201C80.765 540.788 81.982 543.38 82.5 544.201C85.838 542.205 95.365 539.492 101.5 541.201C103.779 541.836 105.027 545.217 108.5 544.201C109 543.701 109.5 543.201 110 542.701C113.666 542.701 117.334 542.701 121 542.701C123.354 542.012 127.891 540.289 130 539.701C132.5 540.034 135 540.368 137.5 540.701C141.539 539.361 141.285 535.82 148.5 535.701C150.697 538.71 152.573 537.127 157 538.201C157.238 538.259 157.982 539.285 158.5 539.201C159.77 538.995 160.533 537.097 163 537.701C165.456 538.302 167.021 541.135 169 541.701C171.458 542.404 174.953 540.531 177.5 542.201C178.783 543.043 180.05 545.549 181.5 546.201C183.166 546.368 184.834 546.534 186.5 546.701C187.166 547.368 187.834 548.034 188.5 548.701C190.608 549.275 190.924 547.553 192 547.201C194.5 547.201 197 547.201 199.5 547.201C200.713 546.829 201.824 545.263 204 545.701C206.477 546.199 207.352 548.511 209 549.201C211.5 549.034 214 548.868 216.5 548.701C217.153 548.862 219.045 550.097 219.5 550.201C221.996 550.771 225.971 548.747 227.5 548.201C229.833 548.201 232.167 548.201 234.5 548.201C237.884 547.2 242.581 547.115 246 546.201C249 546.034 252 545.868 255 545.701C257.076 544.891 260.334 542.773 262.5 542.201C267.087 540.99 276.558 546.724 280 546.201C288.551 544.901 295.195 540.509 303 539.201C307.572 538.435 311.705 541.91 317 540.201C319.795 539.299 320.689 537.784 325 537.701C325.082 537.811 339.328 546.65 339.5 546.701C342.076 547.468 349.15 545.568 353 546.201C354.744 546.488 354.166 548.232 356.5 547.701C357 547.201 357.5 546.701 358 546.201C362 546.201 366 546.201 370 546.201C370.5 545.534 371 544.868 371.5 544.201C374.143 542.579 378.373 543.447 381 544.201C383.666 544.201 386.334 544.201 389 544.201C391.848 545.103 402.672 548.913 405 545.201C406.175 543.674 405.919 541.783 406.5 540.701C407.09 540.3 407.341 540.314 408.5 540.201C410.7 542.323 416.399 538.413 418.5 539.201C419.971 539.753 420.047 541.092 423 541.201C423 540.868 423 540.534 423 540.201C422.624 539.665 422.699 539.728 422.5 538.701C423.524 538.345 424.837 538.204 426.5 538.201C427.073 538.929 427.501 539.301 428 540.201C431.663 537.31 444.4 532.823 452 535.201C453.621 535.708 453.684 537.855 456.5 537.201C456.833 536.868 457.167 536.534 457.5 536.201C461.666 536.368 465.834 536.534 470 536.701C471.505 536.092 475.567 533.226 479 534.201C479.5 534.701 480 535.201 480.5 535.701C483 535.868 485.5 536.034 488 536.201C488.5 536.701 489 537.201 489.5 537.701C492.186 538.747 494.682 537.717 497 538.701C498.642 539.398 499.621 541.18 501.5 541.701C505.666 541.868 509.834 542.034 514 542.201C514.951 542.484 515.863 543.936 516.5 544.201C519.333 544.201 522.167 544.201 525 544.201C526.544 542.238 531.576 538.972 534 538.201C539 538.368 544 538.534 549 538.701C549.333 538.201 549.667 537.701 550 537.201C555.854 534.551 564.461 540.495 568 542.201C570.541 543.426 571.66 540.655 574 541.201C577.339 541.979 581.41 544.869 585.5 545.201C589.141 540.123 594.067 544.954 599 545.701C603.897 546.443 607.296 540.931 613 543.201C615.632 544.249 619.404 547.611 624.5 546.201C627.654 545.328 630.772 542.085 634 541.201C636.915 540.403 639.877 542.215 642 542.701C647.647 543.994 650.433 540.054 655 541.201C657.042 541.714 658.28 543.519 660 544.201C662.586 545.226 664.607 544.924 667 546.201C667.667 546.868 668.333 547.534 669 548.201C673 548.201 677 548.201 681 548.201C681.788 548.467 682.711 549.936 683.5 550.201C685.788 550.97 699.292 550.919 701 550.201C702.283 549.662 704.721 547.682 706.5 547.201C709.106 546.496 710.013 548.041 712.5 548.201C713.485 546.615 714.777 545.517 716 544.201C721.542 544.148 726.706 544.819 731 545.201C732.055 543.483 732.689 542.795 735.5 542.701C736.513 543.761 736.971 544.026 739 544.201C739.986 542.777 740.506 542.694 743 542.701C744.993 544.668 746.643 543.211 750 544.201C751.853 544.747 757.212 549.197 760 548.201C760.654 547.968 762.018 546.34 763 546.201C765.529 545.843 766.821 549.768 770 548.201C773.888 546.285 776.714 542.548 782 542.201C788.722 548.181 794.787 541.159 800 540.201C800 553.033 800 1041.17 800 1054Z" fill="white"/>
</svg>
